<?xml version="1.0" encoding="UTF-8" standalone="no"?>
<!-- Generator: Adobe Illustrator 13.0.2, SVG Export Plug-In . SVG Version: 6.00 Build 14948)  -->

<svg
   xmlns:dc="http://purl.org/dc/elements/1.1/"
   xmlns:cc="http://creativecommons.org/ns#"
   xmlns:rdf="http://www.w3.org/1999/02/22-rdf-syntax-ns#"
   xmlns:svg="http://www.w3.org/2000/svg"
   xmlns="http://www.w3.org/2000/svg"
   xmlns:sodipodi="http://sodipodi.sourceforge.net/DTD/sodipodi-0.dtd"
   xmlns:inkscape="http://www.inkscape.org/namespaces/inkscape"
   version="1.1"
   id="Layer_1"
   x="0px"
   y="0px"
   width="123.547px"
   height="123.539px"
   viewBox="-0.258 -0.548 123.547 123.539"
   style="enable-background:new -0.258 -0.548 123.547 123.539;"
   xml:space="preserve"
   inkscape:version="0.48.2 r9819"
   sodipodi:docname="logo.svg"
   inkscape:export-filename="/Users/m/Projekte/HL-lunch/logo/apple-touch-icon-144x144.png"
   inkscape:export-xdpi="104.90614"
   inkscape:export-ydpi="104.90614"><metadata
   id="metadata17"><rdf:RDF><cc:Work
       rdf:about=""><dc:format>image/svg+xml</dc:format><dc:type
         rdf:resource="http://purl.org/dc/dcmitype/StillImage" /><dc:title></dc:title></cc:Work></rdf:RDF></metadata><defs
   id="defs15" /><sodipodi:namedview
   pagecolor="#ffffff"
   bordercolor="#666666"
   borderopacity="1"
   objecttolerance="10"
   gridtolerance="10"
   guidetolerance="10"
   inkscape:pageopacity="0"
   inkscape:pageshadow="2"
   inkscape:window-width="1270"
   inkscape:window-height="874"
   id="namedview13"
   showgrid="false"
   inkscape:zoom="1.9103279"
   inkscape:cx="93.181719"
   inkscape:cy="61.769501"
   inkscape:window-x="0"
   inkscape:window-y="22"
   inkscape:window-maximized="0"
   inkscape:current-layer="g3" />
<g
   id="g3">
	
	
	<rect
   style="fill:#005d6f;fill-opacity:1;stroke:none"
   id="rect3762"
   width="123.55"
   height="123.54"
   x="-0.25799999"
   y="-0.54900372" /><path
   style="fill:#FFFFFF;"
   d="M56.711,43.301c0,3.258-2.969,6.734-6.812,6.734v55.031c0,7.805-10.656,7.805-10.656,0V50.035   c-3.75,0-7.008-2.891-7.008-7.227V12.535c0-2.633,3.805-2.742,3.805,0.102V35.02h3.188h3.672h-0.281V12.465   c0-2.531,3.57-2.625,3.57,0.094V35.02H53V12.465c0-2.492,3.711-2.586,3.711,0.094V43.301z"
   id="path9" />
	<path
   style="fill:#FFFFFF;"
   d="M90.094,19.582v85.445c0,7.641-10.672,7.531-10.672,0V71.145h-5.688V19.582   C73.734,7.59,90.094,7.59,90.094,19.582z"
   id="path11" />
</g>
</svg>