<?xml version="1.0" encoding="UTF-8" standalone="no"?>
<!-- Generator: Adobe Illustrator 13.0.2, SVG Export Plug-In . SVG Version: 6.00 Build 14948)  -->

<svg
   xmlns:dc="http://purl.org/dc/elements/1.1/"
   xmlns:cc="http://creativecommons.org/ns#"
   xmlns:rdf="http://www.w3.org/1999/02/22-rdf-syntax-ns#"
   xmlns:svg="http://www.w3.org/2000/svg"
   xmlns="http://www.w3.org/2000/svg"
   xmlns:sodipodi="http://sodipodi.sourceforge.net/DTD/sodipodi-0.dtd"
   xmlns:inkscape="http://www.inkscape.org/namespaces/inkscape"
   version="1.1"
   id="Layer_1"
   x="0px"
   y="0px"
   width="373.44141"
   height="416.96704"
   viewBox="-0.258 -0.548 373.44142 416.96704"
   xml:space="preserve"
   inkscape:version="0.48.2 r9819"
   sodipodi:docname="splash.svg"
   inkscape:export-filename="/Users/m/Projekte/HL-lunch/logo/splash.png"
   inkscape:export-xdpi="482"
   inkscape:export-ydpi="482"><metadata
   id="metadata17"><rdf:RDF><cc:Work
       rdf:about=""><dc:format>image/svg+xml</dc:format><dc:type
         rdf:resource="http://purl.org/dc/dcmitype/StillImage" /><dc:title></dc:title></cc:Work></rdf:RDF></metadata><defs
   id="defs15"><filter
     inkscape:collect="always"
     id="filter3883"
     color-interpolation-filters="sRGB"><feGaussianBlur
       inkscape:collect="always"
       stdDeviation="5.1723437"
       id="feGaussianBlur3885" /></filter></defs><sodipodi:namedview
   pagecolor="#ffffff"
   bordercolor="#666666"
   borderopacity="1"
   objecttolerance="10"
   gridtolerance="10"
   guidetolerance="10"
   inkscape:pageopacity="0"
   inkscape:pageshadow="2"
   inkscape:window-width="1596"
   inkscape:window-height="1156"
   id="namedview13"
   showgrid="false"
   inkscape:zoom="0.95516395"
   inkscape:cx="344.25499"
   inkscape:cy="245.42833"
   inkscape:window-x="0"
   inkscape:window-y="22"
   inkscape:window-maximized="0"
   inkscape:current-layer="layer1"
   fit-margin-top="0"
   fit-margin-left="0"
   fit-margin-right="0"
   fit-margin-bottom="0" />
<g
   inkscape:groupmode="layer"
   id="layer1"
   inkscape:label="Ebene"
   transform="translate(25.491834,0.00100152)"><path
     inkscape:connector-curvature="0"
     style="fill:#fffaad;fill-opacity:1;fill-rule:evenodd;stroke:none;filter:url(#filter3883)"
     d="m -13.336209,218.35899 c 0,19.2768 16.9227747,91.55415 21.1673187,108.32114 3.1362033,12.3888 7.9160043,25.137 13.4701073,36.10706 7.328372,14.47447 24.696177,19.39986 38.486032,22.80443 19.928659,4.92021 43.011651,5.70112 63.501961,5.70112 19.28768,0 40.57046,-6.16299 59.07188,-10.73081 4.53028,-1.11849 16.36555,-2.53383 20.85559,-3.80074 17.45725,-4.92576 26.39741,-9.34363 45.15214,-13.974 12.75341,-3.14871 26.09536,-11.25155 36.56173,-19.00371 12.97271,-9.60854 23.14748,-21.61109 32.71315,-34.20669 1.9243,-2.53382 3.84859,-5.06765 5.7729,-7.60148 7.38164,-9.71978 11.54581,-26.00439 11.54581,-38.00741 0,-14.59575 1.95083,-25.58951 -3.8486,-39.90779 -5.70923,-14.09556 -18.2758,-23.74963 -28.86452,-34.20666 -12.59036,-12.43378 -22.25769,-25.18382 -37.14323,-32.53401 -15.18044,-7.49584 -37.14637,-7.79394 -53.88046,-13.3026 -21.09225,-6.94332 -46.58664,-9.27414 -68.69337,-9.27414 -16.73438,0 -33.55094,0 -50.031845,0 -17.164432,0 -15.372749,2.68147 -31.813918,5.92882 -11.605863,2.2923 -74.022676,55.27974 -74.022676,77.68747 z"
     id="path3150"
     sodipodi:nodetypes="csssssssssssssssssss"
     transform="matrix(1,0,0,1.2184452,0,-75.47604)" /><path
     sodipodi:type="arc"
     style="fill:none;stroke:#000000;stroke-width:11.30000019;stroke-linecap:round;stroke-linejoin:miter;stroke-miterlimit:0;stroke-opacity:1;stroke-dasharray:none;stroke-dashoffset:0"
     id="path1307"
     sodipodi:cx="422.85715"
     sodipodi:cy="360.93362"
     sodipodi:rx="171.42857"
     sodipodi:ry="142.85715"
     d="m 552.78901,454.12349 c -61.76081,59.79949 -170.00032,66.55403 -241.7597,15.08669 -71.75939,-51.46734 -79.86484,-141.66693 -18.10403,-201.46642 54.79766,-53.05747 147.65864,-65.20933 219.3338,-28.70219"
     sodipodi:start="0.71065329"
     sodipodi:end="5.2610102"
     transform="matrix(0.66983212,0,0,0.80379429,-116.72469,-32.146653)"
     sodipodi:open="true" /><path
     sodipodi:type="arc"
     style="fill:none;stroke:#000000;stroke-width:11.29991436;stroke-linecap:round;stroke-linejoin:miter;stroke-miterlimit:0;stroke-opacity:1;stroke-dasharray:none;stroke-dashoffset:0"
     id="path2182"
     sodipodi:cx="422.85715"
     sodipodi:cy="360.93362"
     sodipodi:rx="171.42857"
     sodipodi:ry="142.85715"
     d="m 290.93544,269.70582 c 60.46047,-60.7153 168.53673,-69.09068 241.39507,-18.70696 72.85835,50.38373 82.90882,140.44728 22.44835,201.16257 -32.56087,32.69811 -80.89841,51.62067 -131.88674,51.62934"
     sodipodi:start="3.8342633"
     sodipodi:end="7.8537776"
     transform="matrix(0.49873742,0,0,0.59779631,-43.901504,39.831211)"
     sodipodi:open="true" /><path
     inkscape:connector-curvature="0"
     style="fill:none;stroke:#000000;stroke-width:3.9101932;stroke-linecap:butt;stroke-linejoin:miter;stroke-miterlimit:4;stroke-opacity:1;stroke-dasharray:none"
     d="m 270.7488,206.19726 0.33917,-29.26369 c 0,0 -0.50876,-5.85274 4.23964,-5.85274 4.57881,0 3.73088,5.85274 3.73088,5.85274 l -0.16958,29.26369 c 0,0 -0.50876,2.92638 3.39171,3.09852 3.90046,0.17214 3.22212,-3.27066 3.22212,-3.27066 l -0.16958,-28.74728 c 0,0 -0.33917,-6.19701 3.73088,-6.19701 4.07005,0 3.22213,6.36916 3.22213,6.36916 l 0,29.43584 c 0,0 1.27188,2.53905 4.07005,2.40994 2.79817,-0.1291 3.26452,-2.45298 3.34932,-2.38843 l 0.38157,-29.28522 c 0,0 0,-6.19701 3.56129,-6.36915 3.5613,-0.17214 3.5613,6.36915 3.5613,6.36915 l -0.16959,30.98509 c 0,0 1.89895,25.03262 -9.69548,26.71622 -10.26241,1.49019 4.049,89.02752 0.2228,91.63218 -3.6195,2.46395 -4.52562,2.89683 -7.91733,3.06897 -3.39171,0.17214 -6.7097,-1.06196 -8.87664,-3.55585 -3.99219,-4.59454 8.69596,-90.54489 1.02251,-91.65665 -9.99897,-1.44869 -11.21676,-28.78696 -11.04717,-28.61482 z"
     id="path4031"
     sodipodi:nodetypes="cczccsccscczccsccsszssc" /><path
     inkscape:connector-curvature="0"
     style="fill:none;stroke:#000000;stroke-width:3.9101932;stroke-linecap:butt;stroke-linejoin:miter;stroke-miterlimit:4;stroke-opacity:1;stroke-dasharray:none"
     d="m 6.9268737,187.68446 c 4.5788073,-8.77911 13.9060173,-10.21689 17.9760683,-10.21689 4.07005,0 15.034204,0.97924 18.145656,10.90544 3.151198,10.053 1.729358,56.01771 -9.865066,57.70131 -10.262413,1.49019 4.048994,89.02753 0.222794,91.63219 -3.619491,2.46395 -4.525608,2.89683 -7.917321,3.06897 -3.391712,0.17214 -6.373993,-0.39055 -8.540937,-2.88445 -3.992192,-4.59454 8.360256,-90.20919 0.686806,-91.32095 C 7.6358987,245.12139 2.3480657,196.46356 6.9268737,187.68446 z"
     id="path8399"
     sodipodi:nodetypes="csssszsss" /><path
     sodipodi:type="arc"
     style="fill:none;stroke:#000000;stroke-width:5.8829999;stroke-linecap:round;stroke-linejoin:miter;stroke-miterlimit:4;stroke-opacity:1;stroke-dasharray:none;stroke-dashoffset:0"
     id="path8401"
     sodipodi:cx="160.36171"
     sodipodi:cy="319.49652"
     sodipodi:rx="16.920055"
     sodipodi:ry="26.769043"
     d="m 158.5168,292.88708 c 9.28898,-1.61201 17.64517,8.99465 18.66408,23.69064 1.01892,14.69598 -5.68529,27.91623 -14.97427,29.52824 -0.92528,0.16057 -1.85736,0.20007 -2.78675,0.1181"
     sodipodi:start="4.6031352"
     sodipodi:end="7.9096749"
     sodipodi:open="true"
     transform="matrix(0.66465973,0,0,0.82848108,-79.928514,-54.244462)" /></g><g
   id="g3"
   transform="translate(25.491834,0.00100152)">
	
	
	<rect
   style="fill:#005d6f;fill-opacity:1;stroke:none"
   id="rect3762"
   width="123.55"
   height="123.54"
   x="-0.25799999"
   y="-0.54900372"
   ry="14.133699" /><path
   style="fill:#ffffff"
   d="m 56.711,43.301 c 0,3.258 -2.969,6.734 -6.812,6.734 v 55.031 c 0,7.805 -10.656,7.805 -10.656,0 V 50.035 c -3.75,0 -7.008,-2.891 -7.008,-7.227 V 12.535 c 0,-2.633 3.805,-2.742 3.805,0.102 V 35.02 H 39.228 42.9 42.619 V 12.465 c 0,-2.531 3.57,-2.625 3.57,0.094 V 35.02 H 53 V 12.465 c 0,-2.492 3.711,-2.586 3.711,0.094 v 30.742 z"
   id="path9"
   inkscape:connector-curvature="0" />
	<path
   style="fill:#ffffff"
   d="m 90.094,19.582 v 85.445 c 0,7.641 -10.672,7.531 -10.672,0 V 71.145 H 73.734 V 19.582 c 0,-11.992 16.36,-11.992 16.36,0 z"
   id="path11"
   inkscape:connector-curvature="0" />
<flowRoot
   xml:space="preserve"
   id="flowRoot3802"
   style="font-size:40px;font-style:normal;font-weight:normal;line-height:125%;letter-spacing:0px;word-spacing:0px;fill:#000000;fill-opacity:1;stroke:none;font-family:Sans"
   transform="translate(151.079,114.41639)"><flowRegion
     id="flowRegion3804"><rect
       id="rect3806"
       width="366.9527"
       height="175.88603"
       x="-9.4224663"
       y="-61.246029" /></flowRegion><flowPara
     id="flowPara3808"
     style="font-size:72px;font-style:normal;font-variant:normal;font-weight:bold;font-stretch:normal;line-height:0%;fill:#005d6f;fill-opacity:1;font-family:Aller;-inkscape-font-specification:Aller Bold">HL-</flowPara><flowPara
     style="font-size:72px;font-style:normal;font-variant:normal;font-weight:bold;font-stretch:normal;line-height:119.00000572%;fill:#005d6f;fill-opacity:1;font-family:Aller;-inkscape-font-specification:Aller Bold"
     id="flowPara3810">lunch</flowPara></flowRoot></g>
</svg>